<?xml version="1.0" encoding="UTF-8"?>
<svg enable-background="new 0 0 1366 768" version="1.1" viewBox="0 0 1366 768"  xmlns="http://www.w3.org/2000/svg">
<style type="text/css">
	.st0{fill:#FFC5CC;}
	.st1{fill:#FF8795;}
	.st2{fill:#FEA1AB;}
	.st3{fill:#FFACB6;}
	.st4{fill:#0A1930;}
	.st5{fill:#F77171;}
</style>
<path class="st0" d="m928.71 443.89c0.1-0.01 0.2-0.01 0.29 0.02v24.96c-0.1-0.02-0.19-0.03-0.29-0.03-0.03-7.99-0.05-15.98-0.08-23.97 0-0.33 0.05-0.66 0.08-0.98z"/>
<path class="st1" d="m928.71 468.83c0.1 0 0.2 0.01 0.29 0.03v15.11c-0.08-0.48-0.22-0.96-0.22-1.44-0.06-4.35-0.11-8.7-0.15-13.05-0.01-0.21 0.05-0.43 0.08-0.65z"/>
<path class="st2" d="m675.68 29.86c0.04-0.14 0.05-0.28 0.02-0.42h3.24c-1.03 0.53-2.14 0.53-3.26 0.42z"/>
<path class="st3" d="m929 504.66c-0.1 0-0.21 0-0.31 0.02-0.18-0.81 0-1.57 0.31-2.32v2.3z"/>
<path class="st4" d="m888.58 382.98c0.18 25.56 0.36 51.11 0.55 76.67 0.05 6.95 0.21 13.9 0.16 20.85-0.07 9.94-4.61 17.59-13.58 22.69-10.36 5.9-20.8 11.65-31.21 17.47-24.87 13.91-49.75 27.82-74.62 41.72-22.05 12.33-44.11 24.65-66.16 36.97-1.78 1-3.56 2.01-5.36 2.98-4.34 2.35-9.01 3.53-14.02 3.43-4.27-0.09-8.3-1.09-12.06-3.02-2.33-1.19-4.61-2.46-6.91-3.7-18.29-9.89-36.57-19.78-54.86-29.67-31.83-17.21-63.65-34.43-95.48-51.64-7.24-3.92-14.48-7.85-21.74-11.75-2.72-1.47-5.2-3.22-7.28-5.46-4.53-4.87-6.85-10.56-6.93-17.07-0.06-4.6-0.1-9.19-0.14-13.79-0.21-28.62-0.43-57.24-0.64-85.86-0.18-24.68-0.34-49.36-0.52-74.04-0.05-7.33-0.2-14.67-0.21-22-0.01-6.36 2.12-12.03 6.42-16.93 2.05-2.33 4.5-4.21 7.25-5.74 6.45-3.59 12.89-7.2 19.33-10.8 21.26-11.88 42.51-23.77 63.77-35.65 25.37-14.18 50.74-28.37 76.11-42.55 5.75-3.21 11.51-6.41 17.24-9.64 3.36-1.89 6.93-3.17 10.8-3.66 5.59-0.7 10.88 0.24 15.87 2.69 2.19 1.08 4.32 2.29 6.47 3.45 18.39 9.94 36.77 19.89 55.16 29.83 22.78 12.32 45.57 24.64 68.35 36.96 16.19 8.75 32.37 17.51 48.56 26.26 2.31 1.25 4.54 2.58 6.45 4.35 5.52 5.1 8.31 11.32 8.45 18.62 0.05 2.79 0.05 5.58 0.07 8.37 0.22 29.88 0.43 59.76 0.65 89.64 0.05 0.02 0.05 0.02 0.06 0.02zm-205.1-97.76c-13.16 0-26.32-0.01-39.49 0.01-2.46 0-4.91-0.02-7.38 0.29-2.45 0.32-4.9 0.61-7.3 1.16-6.2 1.42-11.97 3.8-17.28 7.18-8.25 5.25-14.64 12.08-19.12 20.52-3.93 7.39-5.98 15.23-6.04 23.53-0.01 1.15 0.01 2.3 0 3.45-0.02 3.91 0.57 7.75 1.51 11.54 2.3 9.25 7.08 17.3 13.68 24.34 5.36 5.73 11.95 9.86 19.39 12.78 3.41 1.34 6.95 2.28 10.57 2.93 3.39 0.62 6.83 0.82 10.28 0.82 24.2-0.01 48.4-0.01 72.59 0 2.65 0 5.28 0.25 7.83 0.97 8.81 2.49 15.02 7.78 18.58 15.85 1.44 3.27 1.97 6.7 1.93 10.26-0.03 3.51-0.73 6.84-2.15 10.05-4.27 9.68-14.3 16.28-25.54 16.3-21.38 0.04-42.76 0.01-64.14 0.02-1.79 0-3.57-0.16-5.29-0.54-9.77-2.16-16.58-7.67-20.31-16.56-0.84-1.99-1.33-4.06-1.64-6.18-0.34-2.23-1.76-3.53-4.09-3.74-0.4-0.04-0.8-0.03-1.21-0.03h-26.73c-0.57 0-1.15 0.01-1.72 0.09-2.33 0.33-3.64 1.87-3.5 4.11 0.08 1.25 0.2 2.51 0.37 3.75 0.64 4.62 1.7 9.14 3.35 13.54 3.03 8.11 7.61 15.3 13.73 21.61 5.83 6.03 12.66 10.77 20.48 14.21 5.46 2.4 11.15 4.06 17.1 4.88 3.81 0.52 7.63 0.81 11.49 0.8 19.31-0.04 38.62-0.01 57.94-0.03 3.27 0 6.53-0.01 9.8-0.32 6.4-0.6 12.58-1.96 18.5-4.31 12.04-4.78 21.75-12.33 29.08-22.61 6.84-9.59 10.58-20.18 11.26-31.76 0.36-6.15-0.18-12.22-1.66-18.23-2.02-8.21-5.67-15.7-10.84-22.52-3.11-4.1-6.74-7.75-10.79-11.02-4.54-3.66-9.51-6.69-14.94-9.02-8.5-3.66-17.41-5.42-26.74-5.41-23.91 0.03-47.82 0.01-71.73 0.01-0.75 0-1.5 0.01-2.24-0.04-6.91-0.52-11.99-3.72-15.31-9.49-2.22-3.87-2.58-8.07-1.83-12.29 1.7-9.59 10.47-14.73 18.07-14.71 27.59 0.07 55.18 0.04 82.77 0.02 3.57 0 6.82 0.95 9.76 2.79 4.66 2.92 7.46 7.04 8.25 12.33 0.19 1.28 0.8 2.27 1.85 3.03 0.91 0.66 1.99 0.78 3.11 0.78 9.2-0.01 18.39 0 27.59-0.01 0.63 0 1.27-0.06 1.87-0.22 1.8-0.47 3-2.06 2.89-3.8-0.09-1.42-0.22-2.83-0.39-4.24-0.63-5.08-2.04-9.97-4.18-14.66-3.92-8.56-9.76-15.69-17.53-21.37-7.49-5.46-15.89-8.91-25.25-10.2-3.01-0.42-6.02-0.67-9.07-0.66-13.41 0.04-26.8 0.02-40.19 0.02z"/>
	<path class="st5" d="m929 483.97v18.39c-0.31 0.75-0.49 1.51-0.31 2.32-0.1 0.65-0.17 1.3-0.32 1.94-0.64 2.86-1.76 5.55-3.26 8.09-2.88 4.88-6.88 8.72-11.95 11.56l-29.58 16.53c-55.14 30.83-110.27 61.65-165.41 92.48-5.5 3.07-11 6.15-16.5 9.22-3.81 2.13-7.89 3.53-12.28 4.06-0.27 0.03-0.52 0.18-0.78 0.27h-6.9c-0.2-0.09-0.4-0.23-0.61-0.25-4.52-0.51-8.67-2-12.61-4.14-12.17-6.61-24.37-13.19-36.55-19.78-49.64-26.85-99.29-53.7-148.93-80.55-9.09-4.92-18.18-9.84-27.27-14.75-4.01-2.16-7.4-4.99-10.12-8.53-4.14-5.38-6.23-11.42-6.29-18.07-0.13-13.24-0.21-26.48-0.31-39.73-0.23-30.53-0.47-61.07-0.69-91.6-0.18-24.13-0.32-48.26-0.51-72.39-0.04-5.47-0.19-10.94-0.33-16.41-0.02-0.97-0.2-1.94-0.3-2.91v-13.46c0.63-0.3 0.58-0.89 0.65-1.42 0.58-4.53 2.17-8.71 4.72-12.56 2.88-4.34 6.71-7.73 11.36-10.32 28.1-15.69 56.18-31.4 84.27-47.11 42.21-23.6 84.42-47.19 126.62-70.8 3.97-2.22 8.19-3.68 12.75-4.27 0.84 0.09 1.66 0.09 2.43-0.31h4.14c0.33 0.09 0.65 0.21 0.99 0.25 4.69 0.5 9.04 1.96 13.13 4.2 7.32 4.01 14.68 7.95 22.02 11.92 58.94 31.88 117.88 63.75 176.83 95.63 4.8 2.59 9.64 5.12 14.37 7.81 8.58 4.88 13.76 12.05 15.54 21.43 0.41 2.16 0.47 4.35 0.48 6.54 0.18 25.01 0.36 50.02 0.53 75.03l0.66 99.66c0 0.66 0.02 1.31 0.03 1.97-0.03 0.33-0.08 0.65-0.08 0.98 0.02 7.99 0.05 15.98 0.08 23.97-0.03 0.22-0.08 0.43-0.08 0.65 0.04 4.35 0.08 8.7 0.15 13.05 0 0.45 0.14 0.93 0.22 1.41zm-40.42-100.99h-0.02c-0.22-29.88-0.43-59.76-0.65-89.64-0.02-2.79-0.02-5.58-0.07-8.37-0.14-7.3-2.93-13.52-8.45-18.62-1.92-1.77-4.15-3.11-6.45-4.35-16.19-8.75-32.38-17.51-48.56-26.26-22.78-12.32-45.57-24.64-68.35-36.96-18.39-9.94-36.77-19.89-55.16-29.83-2.15-1.16-4.27-2.37-6.47-3.45-4.99-2.45-10.28-3.4-15.87-2.69-3.87 0.49-7.45 1.76-10.8 3.66-5.74 3.23-11.49 6.43-17.24 9.64-25.37 14.18-50.74 28.37-76.11 42.55-21.26 11.88-42.51 23.77-63.77 35.65-6.44 3.6-12.88 7.21-19.33 10.8-2.75 1.53-5.2 3.41-7.25 5.74-4.3 4.9-6.43 10.56-6.42 16.93 0.02 7.33 0.16 14.67 0.21 22 0.18 24.68 0.34 49.36 0.52 74.04 0.21 28.62 0.42 57.24 0.64 85.86 0.03 4.6 0.08 9.19 0.14 13.79 0.08 6.51 2.4 12.2 6.93 17.07 2.08 2.24 4.56 3.99 7.28 5.46 7.25 3.9 14.49 7.83 21.74 11.75 31.83 17.21 63.65 34.43 95.48 51.64 18.29 9.89 36.57 19.78 54.86 29.67 2.3 1.24 4.58 2.51 6.91 3.7 3.76 1.92 7.79 2.93 12.06 3.02 5 0.1 9.67-1.07 14.02-3.43 1.8-0.97 3.57-1.99 5.36-2.98 22.05-12.32 44.11-24.64 66.16-36.97 24.88-13.9 49.75-27.82 74.62-41.72 10.41-5.82 20.85-11.57 31.21-17.47 8.97-5.1 13.51-12.75 13.58-22.69 0.05-6.95-0.11-13.9-0.16-20.85-0.23-25.58-0.41-51.13-0.59-76.69z"/>
	<path class="st5" d="m683.48 285.22c13.39 0 26.78 0.02 40.18-0.02 3.05-0.01 6.06 0.24 9.07 0.66 9.36 1.3 17.77 4.74 25.25 10.2 7.77 5.67 13.61 12.81 17.53 21.37 2.15 4.69 3.56 9.58 4.18 14.66 0.17 1.41 0.3 2.83 0.39 4.24 0.11 1.74-1.09 3.32-2.89 3.8-0.6 0.16-1.25 0.22-1.87 0.22-9.2 0.01-18.39 0.01-27.59 0.01-1.11 0-2.2-0.12-3.11-0.78-1.04-0.76-1.65-1.75-1.85-3.03-0.79-5.29-3.59-9.41-8.25-12.33-2.93-1.84-6.19-2.79-9.76-2.79-27.59 0.02-55.18 0.05-82.77-0.02-7.6-0.02-16.37 5.12-18.07 14.71-0.75 4.22-0.4 8.42 1.83 12.29 3.31 5.77 8.4 8.98 15.31 9.49 0.74 0.06 1.49 0.04 2.24 0.04 23.91 0 47.82 0.02 71.73-0.01 9.33-0.01 18.24 1.75 26.74 5.41 5.43 2.33 10.4 5.36 14.94 9.02 4.05 3.27 7.68 6.92 10.79 11.02 5.17 6.82 8.82 14.31 10.84 22.52 1.48 6.01 2.03 12.07 1.66 18.23-0.68 11.58-4.42 22.17-11.26 31.76-7.34 10.28-17.04 17.83-29.08 22.61-5.92 2.35-12.1 3.71-18.5 4.31-3.27 0.31-6.53 0.31-9.8 0.32-19.31 0.02-38.62-0.02-57.94 0.03-3.86 0.01-7.69-0.28-11.49-0.8-5.95-0.81-11.64-2.48-17.1-4.88-7.82-3.44-14.65-8.18-20.48-14.21-6.11-6.31-10.7-13.5-13.73-21.61-1.64-4.4-2.71-8.92-3.35-13.54-0.17-1.25-0.29-2.5-0.37-3.75-0.14-2.24 1.17-3.77 3.5-4.11 0.56-0.08 1.14-0.09 1.72-0.09 8.91-0.01 17.82 0 26.73 0 0.4 0 0.81-0.01 1.21 0.03 2.33 0.21 3.75 1.51 4.09 3.74 0.32 2.12 0.81 4.19 1.64 6.18 3.74 8.89 10.54 14.4 20.31 16.56 1.72 0.38 3.5 0.54 5.29 0.54 21.38-0.01 42.76 0.02 64.14-0.02 11.24-0.02 21.27-6.62 25.54-16.3 1.42-3.22 2.12-6.55 2.15-10.05 0.03-3.56-0.49-6.99-1.93-10.26-3.55-8.07-9.76-13.36-18.58-15.85-2.55-0.72-5.18-0.97-7.83-0.97-24.2-0.01-48.4-0.01-72.59 0-3.45 0-6.89-0.2-10.28-0.82-3.61-0.66-7.15-1.59-10.57-2.93-7.44-2.92-14.03-7.05-19.39-12.78-6.6-7.05-11.37-15.09-13.68-24.34-0.94-3.78-1.53-7.63-1.51-11.54 0.01-1.15-0.01-2.3 0-3.45 0.06-8.3 2.11-16.13 6.04-23.53 4.48-8.43 10.87-15.27 19.12-20.52 5.31-3.38 11.08-5.76 17.28-7.18 2.39-0.55 4.85-0.84 7.3-1.16 2.47-0.32 4.92-0.29 7.38-0.29 13.17-0.02 26.33-0.01 39.5-0.01z"/>
</svg>
